# xmcd CD database file
#
# Track frame offsets:
#	182
#	28092
#	52647
#	64602
#	85560
#	107422
#	134947
#	168627
#
# Disc length: 2535 seconds
#
# Revision: 0
# Processed by: cddbd v1.4PL0 Copyright (c) Steve Scherf et al.
# Submitted via: CDex 1.50Beta7
#
DISCID=6109e508
DTITLE=Traffic  - Live In London 1970
DYEAR=1900
DGENRE=Blues
TTITLE0=Who Knows What Tomorrow May Bring ?
TTITLE1=Not Time To Live
TTITLE2=Medicated Goo
TTITLE3=John Barleycorn
TTITLE4=Pearly Queen
TTITLE5=Empty Pages
TTITLE6=Glad
TTITLE7=Freedom Rider
EXTD=
EXTT0=
EXTT1=
EXTT2=
EXTT3=
EXTT4=
EXTT5=
EXTT6=
EXTT7=
PLAYORDER=
